<svg xmlns="http://www.w3.org/2000/svg" xmlns:xlink="http://www.w3.org/1999/xlink" version="1.1" id="Layer_1" x="0px" y="0px" width="100%" viewBox="0 0 612 408" enable-background="new 0 0 612 408" xml:space="preserve" style="background: transparent;">

<path fill="#2B880E" opacity="1.000000" stroke="none" d=" M213.809509,219.007965   C214.802399,221.444458 215.239197,224.382172 216.895889,226.220398   C221.287827,231.093521 226.133377,235.570251 230.936340,240.057098   C236.126694,244.905777 236.435440,250.778702 228.428497,253.888718   C220.770569,256.863159 213.046280,255.410339 205.354736,255.959595   C198.907089,256.420013 192.092926,256.127869 187.586182,251.516968   C181.965775,245.766647 177.268753,249.583801 171.882965,250.783813   C158.170639,253.839096 144.384735,255.730270 130.525299,251.174072   C128.573486,250.532425 126.261345,251.002411 124.117020,250.928192   C114.733299,250.603378 105.350998,250.232483 95.965881,249.956543   C93.022736,249.870026 91.588608,248.722672 92.304878,245.227264   C96.015312,245.227264 99.775505,245.227264 103.535706,245.227264   C103.566040,244.950775 103.596367,244.674286 103.626701,244.397812   C102.376907,244.167374 100.979004,244.214249 99.910881,243.643707   C98.158630,242.707779 96.762207,241.358582 100.145157,239.480682   C101.581367,239.434280 102.409546,239.713882 103.462891,240.242538   C105.102303,240.929352 106.504471,241.693970 107.932953,241.746811   C113.361534,241.947540 118.801918,242.054779 124.231277,241.923492   C127.476273,241.845016 130.708969,241.258026 134.347443,240.872162   C135.540924,240.928650 136.334137,241.012604 137.328125,241.378418   C139.856110,243.179810 142.131531,244.250061 143.920990,240.929108   C143.941452,240.932251 143.930786,240.892242 144.224045,240.923294   C144.713837,240.959183 144.910385,240.964035 145.351944,241.014130   C145.596939,241.059372 146.071579,241.211044 146.323013,241.370605   C147.690323,241.423859 148.806183,241.317551 150.265076,241.035217   C153.313278,240.775757 156.168243,241.220795 158.694138,240.504837   C165.013306,238.713684 171.339828,236.757858 177.354767,234.154877   C181.003189,232.576004 182.821945,233.457016 185.218216,236.188080   C188.910477,240.396164 193.215164,244.032684 199.367294,244.032730   C204.930908,244.032776 210.498489,244.114151 216.055145,243.909927   C217.316971,243.863525 218.540939,242.786819 219.782349,242.184357   C219.162796,240.923630 218.801666,239.415375 217.875473,238.448334   C215.032486,235.480042 211.972961,232.719177 208.845581,229.733139   C208.491165,229.395905 208.288086,229.203964 207.834717,228.910339   C207.394714,228.512070 207.204300,228.216232 206.988617,227.592285   C206.947525,226.825119 206.931656,226.386047 207.275818,225.921173   C209.693741,223.599579 211.751633,221.303772 213.809509,219.007965  z" data-index="0" style="opacity: 1; visibility: visible;"></path>
<path fill="#9DC71C" opacity="1.000000" stroke="none" d=" M100.841782,160.998810   C110.164688,147.401138 122.823387,138.861053 138.622711,133.898804   C151.168381,129.958450 163.851410,130.255508 176.278839,131.481995   C183.968445,132.240891 192.341873,134.687988 198.621918,140.789932   C201.256836,143.350113 204.676224,145.102921 208.012955,147.727676   C208.490311,148.479614 208.729645,148.684662 209.004974,148.847717   C209.004974,148.847717 209.164886,148.850403 209.158432,149.287231   C210.364853,152.449127 211.577713,155.174194 213.183304,158.781631   C209.623825,157.128494 207.332321,156.064240 204.702881,155.008347   C203.915924,155.054413 203.466888,155.092117 202.709869,154.971222   C197.145844,150.844116 192.258575,146.211441 186.556793,143.045837   C174.809128,136.523560 161.973511,137.090164 149.135925,139.000748   C134.094666,141.239288 122.207649,149.172760 111.821007,159.743469   C109.956177,161.641342 108.475761,163.916946 106.533539,166.082733   C105.314491,166.684647 104.379745,167.221970 103.121582,167.945175   C102.320641,165.504776 101.581207,163.251801 100.841782,160.998810  z" data-index="1" style="opacity: 1; visibility: visible;"></path>
<path fill="#F5760C" opacity="1.000000" stroke="none" d=" M495.814850,206.013641   C495.530945,208.741211 495.247009,211.468781 494.572784,214.729218   C491.512024,223.171829 485.718323,223.708054 478.735260,222.086182   C477.145081,221.716858 475.262695,222.683197 473.501160,222.941757   C472.591766,223.075241 471.591949,223.225815 470.736145,222.991653   C463.281799,220.951935 455.967621,221.074402 448.670654,224.116669   C448.541901,224.067902 448.297455,223.941284 448.297455,223.941284   C448.230438,223.786041 448.163452,223.630798 447.995117,222.831192   C447.551788,216.699524 447.209778,211.212234 447.087097,206.057922   C452.538696,208.620316 457.706512,208.220932 462.908081,206.436554   C462.997589,207.851608 462.712982,208.969406 463.076477,209.805405   C464.135712,212.241547 465.178070,216.275131 466.736328,216.526596   C468.998932,216.891724 472.594360,215.129684 474.023163,213.131851   C476.324066,209.914597 477.320953,205.764755 479.151245,202.016449   C479.622101,202.028397 479.810455,202.032791 480.055481,202.364441   C481.225250,203.367554 482.593109,204.845047 483.409119,204.585770   C487.841583,203.177475 491.955322,203.083893 495.814850,206.013641  z" data-index="2" style="opacity: 1; visibility: visible;"></path>
<path fill="#F9B210" opacity="1.000000" stroke="none" d=" M479.998810,202.037186   C479.810455,202.032791 479.622101,202.028397 479.221802,201.586044   C479.304291,199.264923 479.581146,197.378815 479.897491,195.499344   C480.337799,192.883438 479.951721,190.787109 476.645782,191.033340   C474.778839,191.172379 472.940552,191.696213 470.690918,192.036392   C467.807648,191.652863 464.555756,190.111145 462.990448,191.138702   C459.197968,193.628250 457.757904,191.541809 456.122650,188.751007   C456.825867,187.280472 457.388000,186.104492 457.950134,184.928513   C457.950134,184.928513 458.002167,184.993057 458.271454,184.958069   C459.066925,184.674301 459.593109,184.425491 460.119293,184.176697   C460.119293,184.176682 460.504211,184.050995 461.005310,183.967255   C461.998199,183.548935 462.490021,183.214355 462.981842,182.879761   C464.254883,182.294388 465.473297,181.479675 466.809967,181.161255   C474.823761,179.252335 491.261871,180.553177 500.560608,183.941025   C499.439880,189.294937 498.293427,194.771759 496.786743,200.301300   C495.514954,196.283142 492.330017,195.438797 489.155121,196.343735   C485.718445,197.323273 479.903412,195.194748 479.998810,202.037186  z" data-index="3" style="visibility: visible;"></path>
<path fill="#5FAB0C" opacity="1.000000" stroke="none" d=" M374.172760,211.986984   C374.713043,208.885712 375.253357,205.784454 376.354095,202.349304   C382.632263,201.314072 388.349976,200.612717 394.067688,199.911346   C394.479034,199.928833 394.890350,199.946335 395.869019,200.144806   C401.894043,199.875565 407.351746,199.425339 413.000153,199.310028   C416.091370,199.734879 418.991943,199.824844 422.307922,199.945465   C426.976410,199.861069 431.333832,200.278488 435.451172,199.471222   C439.084625,198.758850 439.846863,200.148148 440.042297,203.053589   C438.914490,203.997375 437.786682,204.941147 436.082001,205.815979   C432.579590,205.578476 429.611694,205.020676 426.738556,205.333450   C422.531006,205.791519 418.384888,206.842117 414.225739,207.703629   C412.421570,208.077332 410.672882,208.852600 408.859436,209.021957   C403.894318,209.485687 398.908264,209.724625 393.930481,210.052567   C393.501099,210.043137 393.071716,210.033707 391.880981,210.033630   C385.470703,210.690979 379.821716,211.338974 374.172760,211.986984  z" data-index="4" style="opacity: 1; visibility: visible;"></path>
<path fill="#87C011" opacity="1.000000" stroke="none" d=" M408.957184,183.903381   C411.645416,182.929596 414.269653,181.440552 417.036194,181.096878   C421.765686,180.509354 426.673981,179.996780 431.340546,180.647644   C436.072479,181.307632 440.902496,182.964508 442.706665,188.697815   C437.307526,190.723953 433.205444,196.249832 426.587341,192.912903   C422.311432,188.917191 419.272278,192.208511 415.635162,194.028931   C410.804779,193.318985 406.386719,192.631927 402.144958,191.666107   C403.858826,189.236465 405.396332,187.085617 406.933838,184.934753   C406.933838,184.934753 406.945251,184.950821 407.237000,184.895630   C408.004883,184.528091 408.481018,184.215744 408.957184,183.903381  z" data-index="5" style="opacity: 1; visibility: visible;"></path>
<path fill="#87C011" opacity="1.000000" stroke="none" d=" M265.907867,186.092117   C266.080902,186.056870 266.253937,186.021637 266.961395,185.886139   C267.956085,185.491760 268.416290,185.197647 268.876495,184.903534   C271.719421,183.590469 274.471222,181.474380 277.425110,181.139145   C282.818268,180.527115 288.354919,180.650894 293.787811,181.056076   C300.000732,181.519440 304.712128,184.863129 307.651550,190.504303   C300.877838,191.264664 294.433136,191.703369 287.570801,192.079773   C281.739471,190.404984 279.185303,195.658005 275.167755,196.734253   C276.463593,192.950851 275.979797,191.090698 271.601654,191.730988   C269.454102,192.045059 267.150299,191.290909 264.946167,190.659973   C265.286041,188.897217 265.596954,187.494659 265.907867,186.092117  z" data-index="6" style="visibility: visible;"></path>
<path fill="#5FAB0C" opacity="1.000000" stroke="none" d=" M203.017868,155.129822   C203.466888,155.092117 203.915924,155.054413 204.871124,155.293564   C208.568146,160.264328 212.189865,164.733688 214.794937,169.732834   C216.468781,172.944931 218.157974,174.995712 221.831055,175.010483   C222.940948,176.993637 224.050827,178.976807 225.370712,181.292847   C224.413345,184.781418 223.245987,187.937119 222.043411,191.188004   C224.550568,191.889893 226.250183,192.365692 227.949814,192.841507   C222.473495,192.576385 222.026245,196.329849 221.696320,200.875763   C221.282944,201.542038 221.152054,201.730774 221.064499,201.949570   C221.064499,201.949570 221.060059,202.051956 220.664398,201.998810   C218.833023,200.585831 217.397324,199.225998 215.799438,197.712540   C213.566147,198.760422 211.248489,199.847900 208.967880,200.534027   C209.215118,199.357773 209.488312,198.593842 209.625961,197.806259   C211.386948,187.730423 213.556961,177.638000 208.941849,167.710510   C206.987854,163.507324 204.993744,159.322815 203.017868,155.129822  z" data-index="7" style="opacity: 1; visibility: visible;"></path>
<path fill="#3D9413" opacity="1.000000" stroke="none" d=" M418.119751,217.937485   C420.689423,217.477234 423.308289,217.200012 425.820068,216.524490   C435.732819,213.858582 435.720337,213.812210 440.398071,224.552994   C435.874359,225.861786 431.530396,227.684219 427.022064,228.296448   C419.376007,229.334808 411.560150,230.278946 404.141937,226.940552   C402.383606,226.149216 400.884369,224.781998 399.012817,223.080811   C398.408020,218.978699 401.538483,218.754044 402.969849,219.535461   C408.574280,222.595139 413.237335,219.873108 418.119751,217.937485  z" data-index="8" style="visibility: visible;"></path>
<path fill="#87C011" opacity="1.000000" stroke="none" d=" M320.974701,182.143951   C325.152985,182.436188 329.740021,180.478821 333.843292,184.060928   C343.518311,178.794342 356.232758,179.418396 361.453186,185.703094   C366.103607,183.900955 370.595184,181.436676 375.388306,180.474213   C382.409943,179.064255 390.665131,179.487137 393.573669,189.647430   C392.801758,190.002502 392.397491,190.002472 391.822998,189.738861   C390.770447,188.978607 389.888092,188.481918 388.892273,187.649780   C384.384827,182.157623 374.801575,181.550934 367.625671,186.070679   C360.900116,187.915894 355.104126,192.163269 347.901733,190.410721   C347.117126,190.219833 345.982208,191.468536 344.625000,191.959412   C341.151489,191.913559 338.062775,191.957825 334.951782,191.653549   C333.626892,189.862030 332.324341,188.419022 330.957886,186.657303   C329.761505,185.515518 328.734894,184.417587 327.472656,183.931396   C325.386658,183.127914 323.148651,182.719086 320.974701,182.143951  z" data-index="9" style="visibility: visible;"></path>
<path fill="#78BD07" opacity="1.000000" stroke="none" d=" M228.184540,192.904358   C226.250183,192.365692 224.550568,191.889893 222.043411,191.188004   C223.245987,187.937119 224.413345,184.781418 225.756134,181.360931   C227.286453,181.057556 228.641357,181.018997 230.657959,181.185211   C232.673553,181.913254 234.528076,183.281250 235.300461,182.823456   C240.522858,179.728165 245.804550,180.843536 251.153214,181.970947   C254.243469,181.970947 257.333710,181.970947 260.766266,181.970947   C260.848999,183.599350 260.912415,184.847870 260.593475,186.654099   C257.250946,192.803406 252.043701,192.204727 246.765884,191.716339   C239.628525,187.965805 234.224609,188.946884 231.680862,193.924042   C230.554382,193.548462 229.723297,193.313705 228.892197,193.078949   C228.892197,193.078949 228.419250,192.967194 228.184540,192.904358  z" data-index="10" style="opacity: 1; visibility: visible;"></path>
<path fill="#9DC71C" opacity="1.000000" stroke="none" d=" M233.142105,173.020569   C233.659470,167.595810 239.442093,160.988037 245.065308,160.003281   C252.184921,158.756454 259.338440,156.361130 267.289276,159.636246   C266.431335,163.285263 265.564209,166.973389 264.809814,170.182037   C260.884583,171.104691 257.305420,171.945984 253.117432,172.782898   C251.557892,171.316681 250.607178,169.854858 249.366699,167.947479   C244.105682,169.592499 238.623901,171.306534 233.142105,173.020569  z" data-index="11" style="visibility: visible;"></path>
<path fill="#F1B028" opacity="1.000000" stroke="none" d=" M503.171082,193.985855   C503.466156,191.085403 503.184784,187.940994 504.270691,185.375275   C504.930725,183.815765 507.701813,183.149765 509.943054,181.837311   C505.979492,178.099899 505.222809,173.222351 506.957031,167.643219   C508.941284,161.259842 517.130920,156.984344 522.200195,160.007416   C528.317017,163.655228 528.649780,175.106842 522.757996,179.634323   C521.808228,180.364182 520.794800,181.011169 518.846497,182.368057   C528.455750,183.507706 521.609863,189.033890 522.776611,192.404495   C523.325439,193.990021 521.771912,196.303360 520.697998,198.651428   C519.820801,199.019913 519.416748,199.023880 519.023193,198.594391   C519.081299,196.431656 519.128906,194.702362 519.376221,192.684265   C519.657715,189.924179 520.733337,186.778366 519.610840,185.124451   C517.392822,181.856384 518.523010,180.293167 520.736938,177.962387   C522.543457,176.060547 523.593323,173.440033 524.978638,171.138168   C524.507568,170.827759 524.036499,170.517349 523.565491,170.206940   C522.254944,171.408646 520.944397,172.610367 519.116760,174.286194   C518.185669,170.894730 517.462036,168.259033 516.649353,165.298981   C515.013062,168.133621 513.766907,170.292465 512.573608,172.359711   C510.913239,171.640778 509.819275,171.167068 508.725311,170.693375   C508.355988,170.937500 507.986664,171.181625 507.617340,171.425751   C508.558319,173.902313 509.305603,176.476379 510.490631,178.830063   C511.886536,181.602692 512.035400,184.738968 509.267029,185.723145   C505.122314,187.196671 506.140564,190.104965 505.654785,193.018188   C504.652863,193.437927 503.911987,193.711884 503.171082,193.985855  z" data-index="12" style="visibility: visible;"></path>
<path fill="#4B9D14" opacity="1.000000" stroke="none" d=" M308.833069,208.976501   C306.427551,215.268402 303.858948,221.443878 297.101135,224.510666   C295.900604,222.934647 295.128937,220.758865 294.227844,220.703888   C288.311798,220.342957 282.366119,220.508850 276.433563,220.361984   C272.725067,220.270187 268.961151,220.266647 265.336700,219.600296   C262.366638,219.054276 260.126038,219.071808 258.815002,222.159012   C257.574646,220.015701 256.334320,217.872391 255.461731,215.482178   C259.100464,218.374481 262.328857,215.197495 265.560242,215.251404   C270.858185,215.339798 272.703766,212.967850 272.166138,207.820633   C272.850922,207.410156 273.342316,207.191818 273.903412,207.399384   C273.985901,208.808914 273.981506,209.793106 274.014221,210.776077   C274.209625,216.652039 277.671936,219.100952 282.996674,216.799774   C284.854218,215.997025 286.300140,214.241837 288.067200,213.251816   C293.010040,217.061035 302.714355,214.704803 307.303589,209.011093   C308.017365,208.994965 308.425201,208.985733 308.833069,208.976501  z" data-index="13" style="visibility: visible; opacity: 1;"></path>
<path fill="#F26711" opacity="1.000000" stroke="none" d=" M517.801575,216.935425   C517.822205,217.997528 517.968811,219.074722 517.843567,220.119339   C516.862915,228.297379 516.047485,229.027161 507.342926,228.931274   C503.982178,228.894272 500.625275,228.512222 497.427734,228.298157   C498.278412,222.282562 499.015625,217.069061 500.186249,211.770233   C501.601318,212.390457 502.879364,213.907578 503.518280,213.674332   C509.069122,211.647552 513.363037,214.495789 517.801575,216.935425  z" data-index="14" style="visibility: visible; opacity: 1;"></path>
<path fill="#3D9413" opacity="1.000000" stroke="none" d=" M258.866974,222.149292   C260.126038,219.071808 262.366638,219.054276 265.336700,219.600296   C268.961151,220.266647 272.725067,220.270187 276.433563,220.361984   C282.366119,220.508850 288.311798,220.342957 294.227844,220.703888   C295.128937,220.758865 295.900604,222.934647 296.688843,224.534882   C287.128296,230.920578 269.316589,230.544754 260.216156,223.721252   C259.541840,222.853729 259.224701,222.444077 258.907562,222.034409   C258.907562,222.034409 258.918945,222.139557 258.866974,222.149292  z" data-index="15" style="visibility: visible; opacity: 1;"></path>
<path fill="#F26711" opacity="1.000000" stroke="none" d=" M448.799377,224.165451   C455.967621,221.074402 463.281799,220.951935 470.736145,222.991653   C471.591949,223.225815 472.591766,223.075241 473.501160,222.941757   C475.262695,222.683197 477.145081,221.716858 478.735260,222.086182   C485.718323,223.708054 491.512024,223.171829 494.499268,215.139191   C494.536499,217.595078 494.547211,220.251877 493.882050,222.727020   C493.384674,224.577621 492.427948,226.808975 490.955353,227.796509   C486.920715,230.502213 478.017517,228.747025 475.130219,225.228531   C466.544342,230.244675 457.967499,231.126144 449.071777,225.088531   C448.876740,224.560333 448.799377,224.165451 448.799377,224.165451  z" data-index="16" style="visibility: visible;"></path>
<path fill="#3D9413" opacity="1.000000" stroke="none" d=" M86.971138,226.875244   C85.390694,223.616806 85.060204,220.795105 89.934822,221.039062   C93.553398,221.220139 93.655762,219.440109 93.340485,216.439209   C96.187851,215.015686 98.648369,213.968597 101.414589,213.081039   C104.162468,215.901093 106.604637,218.561615 109.097946,221.545578   C109.260849,222.288589 109.372597,222.708176 109.339264,223.417755   C109.105354,224.129822 109.016518,224.551849 108.583313,225.019775   C105.892654,228.072845 103.546364,231.080032 100.947235,234.038132   C100.362991,230.324768 97.826599,229.799973 94.887810,230.009369   C90.929436,230.291382 86.978485,230.677536 82.948059,230.752014   C84.238228,229.281769 85.604683,228.078506 86.971138,226.875244  z" data-index="17" style="visibility: visible;"></path>
<path fill="#78BD07" opacity="1.000000" stroke="none" d=" M389.005737,187.985245   C389.888092,188.481918 390.770447,188.978607 391.741577,190.085724   C390.457977,191.746841 389.233307,193.269913 387.683899,193.754410   C383.928711,194.928619 380.022339,195.619156 376.176880,196.504608   C376.133118,196.172043 376.089386,195.839462 376.343048,195.163040   C376.759613,194.187637 376.878754,193.556091 376.997925,192.924530   C376.311798,192.996750 375.625671,193.068954 374.939545,193.141159   C371.083893,192.203430 367.207581,191.183914 364.030396,195.876007   C361.409180,195.450607 359.494354,194.870819 357.392212,194.234314   C354.584351,198.058197 350.333710,197.629318 346.020752,196.647949   C345.674133,194.868683 345.341980,193.459106 345.009796,192.049515   C345.982208,191.468536 347.117126,190.219833 347.901733,190.410721   C355.104126,192.163269 360.900116,187.915894 367.655334,186.400238   C371.515106,190.106674 383.364624,190.857529 389.005737,187.985245  z" data-index="18" style="visibility: visible;"></path>
<path fill="#F5760C" opacity="1.000000" stroke="none" d=" M518.006470,216.578217   C513.363037,214.495789 509.069122,211.647552 503.518280,213.674332   C502.879364,213.907578 501.601318,212.390457 500.418030,211.427368   C501.075958,207.359406 501.935455,203.548965 503.224121,199.664642   C507.710785,203.315140 514.604126,203.062515 519.012695,199.027847   C519.416748,199.023880 519.820801,199.019913 520.527893,199.015121   C519.957764,204.749863 519.084534,210.485443 518.006470,216.578217  z" data-index="19" style="visibility: visible;"></path>
<path fill="#87C011" opacity="1.000000" stroke="none" d=" M232.972931,173.365173   C238.623901,171.306534 244.105682,169.592499 249.366699,167.947479   C250.607178,169.854858 251.557892,171.316681 252.767593,172.956146   C252.361389,175.811111 251.696182,178.488449 251.092102,181.568359   C245.804550,180.843536 240.522858,179.728165 235.300461,182.823456   C234.528076,183.281250 232.673553,181.913254 231.062851,181.177856   C231.471924,178.547073 232.137848,176.128433 232.972931,173.365173  z" data-index="20" style="opacity: 1; visibility: visible;"></path>
<path fill="#3D9413" opacity="1.000000" stroke="none" d=" M328.842407,214.001022   C328.126953,218.487808 327.411469,222.974594 326.663177,227.667206   C320.574677,227.667206 314.825287,227.667206 308.405945,227.667206   C309.202789,223.229965 309.967957,218.969193 311.174652,214.610840   C317.501404,219.155838 323.211853,217.921692 328.842407,214.001022  z" data-index="21" style="visibility: visible;"></path>
<path fill="#5FAB0C" opacity="1.000000" stroke="none" d=" M228.918396,193.507309   C229.723297,193.313705 230.554382,193.548462 231.686432,194.325623   C231.817261,197.742599 233.127533,199.808212 235.997696,198.774902   C239.724426,197.433182 242.812759,198.065735 245.941864,200.371582   C245.660095,202.455673 245.375610,204.160278 244.818497,206.113571   C241.985825,207.205505 239.277496,209.027115 236.899857,208.666763   C233.168549,208.101242 230.871002,208.959564 228.921448,211.982162   C228.352921,212.863632 227.141983,213.330750 226.225510,213.987793   C226.922729,209.061584 227.629929,204.136765 228.311813,199.208435   C228.554398,197.455231 228.735458,195.693512 228.918396,193.507309  z" data-index="22" style="visibility: visible;"></path>
<path fill="#3D9413" opacity="1.000000" stroke="none" d=" M244.868866,213.042709   C244.487518,216.458664 244.209427,219.890228 243.695908,223.286194   C243.178711,226.706451 241.375473,228.325363 237.574692,227.989258   C233.306961,227.611847 228.980148,227.902466 223.896835,227.902466   C224.404602,223.688675 224.846222,220.023926 225.807617,216.410751   C227.257706,218.627090 227.934921,221.003021 231.099167,218.561752   C232.071472,217.811600 233.840286,217.665039 235.151703,217.861313   C239.598709,218.526871 243.242249,217.913498 244.868866,213.042709  z" data-index="23" style="visibility: visible;"></path>
<path fill="#3D9413" opacity="1.000000" stroke="none" d=" M391.856873,212.994186   C391.193604,216.981918 390.749786,221.026825 389.735046,224.923019   C389.425537,226.111465 387.594604,227.644989 386.375458,227.724976   C381.488220,228.045609 376.567627,227.857483 370.857422,227.857483   C371.396484,224.687119 371.843719,222.056839 373.045410,219.202682   C380.360107,218.616989 387.202942,219.107758 391.856873,212.994186  z" data-index="24" style="visibility: visible;"></path>
<path fill="#69B40C" opacity="1.000000" stroke="none" d=" M346.035217,197.017609   C350.333710,197.629318 354.584351,198.058197 357.392212,194.234314   C359.494354,194.870819 361.409180,195.450607 363.714050,196.042404   C363.394562,199.428268 362.685089,202.802109 361.583008,206.471390   C358.857483,206.347961 356.508789,205.516174 354.195374,205.604736   C350.507202,205.745941 346.842529,206.499649 343.167908,206.994354   C343.438751,205.915421 343.709625,204.836517 344.187073,203.140091   C344.940826,200.687576 345.488007,198.852585 346.035217,197.017609  z" data-index="25" style="visibility: visible;"></path>
<path fill="#78BD07" opacity="1.000000" stroke="none" d=" M331.021820,186.976013   C332.324341,188.419022 333.626892,189.862030 334.679291,191.827271   C332.949524,193.905289 331.469879,195.461044 329.606018,197.042999   C323.792999,198.364197 318.364258,199.659241 312.935486,200.954285   C313.069672,199.416809 313.203857,197.879349 313.888916,195.892914   C314.978821,193.958023 315.517822,192.472107 316.394257,190.963989   C321.495056,189.619858 326.258453,188.297943 331.021820,186.976013  z" data-index="26" style="visibility: visible;"></path>
<path fill="#5FAB0C" opacity="1.000000" stroke="none" d=" M308.895813,208.555099   C308.425201,208.985733 308.017365,208.994965 307.299591,208.679581   C305.974915,207.653168 304.308319,206.151810 304.042389,206.368607   C299.507721,210.065292 294.770996,207.130096 290.236694,206.629883   C290.607849,204.490005 290.895203,202.726547 291.508667,200.841614   C295.788269,199.836594 299.716675,198.805405 303.705353,198.130081   C305.782806,197.778366 307.966522,198.054153 310.102234,198.046478   C309.721008,201.408890 309.339783,204.771286 308.895813,208.555099  z" data-index="27" style="opacity: 1; visibility: visible;"></path>
<path fill="#56A70D" opacity="1.000000" stroke="none" d=" M328.896851,213.571899   C323.211853,217.921692 317.501404,219.155838 311.375977,214.265717   C311.442383,210.649368 311.748993,207.280533 312.300232,203.799713   C313.370911,208.134277 315.102325,209.964737 320.020477,207.680511   C322.569702,206.496552 326.014557,207.241028 329.054810,207.114288   C329.020294,209.123795 328.985779,211.133286 328.896851,213.571899  z" data-index="28" style="visibility: visible;"></path>
<path fill="#56A70D" opacity="1.000000" stroke="none" d=" M244.912506,212.702057   C243.242249,217.913498 239.598709,218.526871 235.151703,217.861313   C233.840286,217.665039 232.071472,217.811600 231.099167,218.561752   C227.934921,221.003021 227.257706,218.627090 226.103851,216.197586   C225.945938,215.498672 226.011627,215.064529 226.151398,214.309082   C227.141983,213.330750 228.352921,212.863632 228.921448,211.982162   C230.871002,208.959564 233.168549,208.101242 236.899857,208.666763   C239.277496,209.027115 241.985825,207.205505 245.041779,206.151337   C245.537689,205.940399 245.986938,206.011047 245.986938,206.011047   C245.643356,208.127838 245.299759,210.244629 244.912506,212.702057  z" data-index="29" style="visibility: visible;"></path>
<path fill="#56A70D" opacity="1.000000" stroke="none" d=" M393.967133,210.376190   C398.908264,209.724625 403.894318,209.485687 408.859436,209.021957   C410.672882,208.852600 412.421570,208.077332 414.225739,207.703629   C418.384888,206.842117 422.531006,205.791519 426.738556,205.333450   C429.611694,205.020676 432.579590,205.578476 435.785034,205.947968   C429.222382,208.096359 422.377960,210.037537 415.540283,212.002151   C414.927399,212.178238 414.358124,212.506332 413.095581,212.702057   C409.561432,212.699112 406.695251,212.890594 403.840515,212.781693   C400.608551,212.658386 397.386871,212.265656 394.160706,211.990082   C394.108398,211.559998 394.056091,211.129913 393.967133,210.376190  z" data-index="30" style="visibility: visible;"></path>
<path fill="#4B9D14" opacity="1.000000" stroke="none" d=" M394.105835,212.382477   C397.386871,212.265656 400.608551,212.658386 403.840515,212.781693   C406.695251,212.890594 409.561432,212.699112 412.749603,212.874680   C414.639923,214.521423 416.203217,215.933762 417.943115,217.641785   C413.237335,219.873108 408.574280,222.595139 402.969849,219.535461   C401.538483,218.754044 398.408020,218.978699 398.833221,222.787354   C397.288177,219.653473 395.669556,216.214157 394.105835,212.382477  z" data-index="31" style="visibility: visible;"></path>
<path fill="#87C011" opacity="1.000000" stroke="none" d=" M100.535645,161.141220   C101.581207,163.251801 102.320641,165.504776 103.121582,167.945175   C104.379745,167.221970 105.314491,166.684647 106.599777,166.441193   C104.651016,171.202225 102.351700,175.669373 99.962296,179.875183   C96.966743,181.060074 94.061295,182.506317 91.155838,183.952560   C91.579300,175.355103 96.052155,168.378510 100.535645,161.141220  z" data-index="32" style="visibility: visible;"></path>
<path fill="#2B880E" opacity="1.000000" stroke="none" d=" M83.024345,231.019012   C86.978485,230.677536 90.929436,230.291382 94.887810,230.009369   C97.826599,229.799973 100.362991,230.324768 101.007141,234.403778   C100.897926,236.204819 100.475945,237.591110 100.053963,238.977402   C96.570229,238.958694 93.086517,238.932785 89.602760,238.922760   C82.568939,238.902512 82.568932,238.906067 82.228363,232.125031   C82.520920,231.463028 82.772629,231.241028 83.024345,231.019012  z" data-index="33" style="visibility: visible;"></path>
<path fill="#3D9413" opacity="1.000000" stroke="none" d=" M213.974060,218.703583   C211.751633,221.303772 209.693741,223.599579 207.069153,225.741669   C205.984009,225.416840 205.465561,225.245712 204.946854,225.064423   C204.946594,225.054260 204.964050,225.047668 204.769180,224.845856   C204.062592,224.435532 203.550873,224.227020 203.007996,224.019165   C202.976837,224.019836 202.983932,223.957916 202.954956,223.597763   C201.609406,222.181244 200.292816,221.124878 198.963684,220.063950   C198.951126,220.059402 198.930084,220.042999 198.867371,219.748154   C198.201981,218.991547 197.599319,218.529770 196.971405,218.067932   C196.946167,218.067856 196.943787,218.017426 196.807098,217.828674   C196.464096,217.403839 196.227463,217.203583 195.955566,217.049469   C195.950623,217.059784 195.927582,217.059158 195.873276,216.700989   C194.900101,213.514832 193.981232,210.686844 193.352753,208.026184   C196.425873,209.735458 197.312546,214.552765 202.013977,213.328751   C203.747986,214.426956 205.473618,215.954407 206.970383,215.755951   C210.390991,215.302383 213.699646,214.004471 217.053772,213.049500   C216.082031,214.832748 215.110321,216.615982 213.974060,218.703583  z" data-index="34" style="visibility: visible;"></path>
<path fill="#6FB00F" opacity="1.000000" stroke="none" d=" M426.911682,193.083939   C433.205444,196.249832 437.307526,190.723953 442.751526,189.063171   C444.668701,193.962448 444.989044,198.754639 440.364563,202.897324   C439.846863,200.148148 439.084625,198.758850 435.451172,199.471222   C431.333832,200.278488 426.976410,199.861069 422.481506,199.638489   C424.726166,197.926849 427.772980,196.973877 426.911682,193.083939  z" data-index="35" style="opacity: 1; visibility: visible;"></path>
<path fill="#78BD07" opacity="1.000000" stroke="none" d=" M310.349121,197.839752   C307.966522,198.054153 305.782806,197.778366 303.705353,198.130081   C299.716675,198.805405 295.788269,199.836594 291.450806,200.438736   C290.040649,197.485580 289.014557,194.813843 287.988464,192.142090   C294.433136,191.703369 300.877838,191.264664 307.712585,190.864365   C308.933777,193.146210 309.764893,195.389618 310.349121,197.839752  z" data-index="36" style="opacity: 1; visibility: visible;"></path>
<path fill="#5FAB0C" opacity="1.000000" stroke="none" d=" M329.364746,206.886322   C326.014557,207.241028 322.569702,206.496552 320.020477,207.680511   C315.102325,209.964737 313.370911,208.134277 312.364105,203.390091   C312.245209,202.478699 312.307098,201.864975 312.652252,201.102753   C318.364258,199.659241 323.792999,198.364197 329.673706,197.334595   C330.449890,198.093994 330.774200,198.587982 331.098511,199.081970   C330.623932,201.607437 330.149323,204.132904 329.364746,206.886322  z" data-index="37" style="opacity: 1; visibility: visible;"></path>
<path fill="#4B9D14" opacity="1.000000" stroke="none" d=" M359.862274,210.981506   C359.475708,215.202972 359.089142,219.424454 358.195862,223.514618   C355.562622,222.587708 353.486603,221.589584 351.297821,221.043564   C347.961212,220.211273 344.546570,219.691803 341.165070,219.039490   C341.542297,217.147797 341.919525,215.256088 342.934998,213.319702   C349.626190,216.936920 354.717987,213.772934 359.862274,210.981506  z" data-index="38" style="opacity: 1; visibility: visible;"></path>
<path fill="#87C011" opacity="1.000000" stroke="none" d=" M221.895569,174.595062   C218.157974,174.995712 216.468781,172.944931 214.794937,169.732834   C212.189865,164.733688 208.568146,160.264328 205.209045,155.285217   C207.332321,156.064240 209.623825,157.128494 213.183304,158.781631   C211.577713,155.174194 210.364853,152.449127 209.162796,149.367065   C216.262680,155.963852 220.399994,164.417114 221.895569,174.595062  z" data-index="39" style="visibility: visible;"></path>
<path fill="#FC9704" opacity="1.000000" stroke="none" d=" M519.023193,198.594391   C514.604126,203.062515 507.710785,203.315140 503.416290,199.324966   C503.128998,197.646851 503.078735,196.234482 503.099792,194.403992   C503.911987,193.711884 504.652863,193.437927 506.059814,193.051010   C510.876068,192.949722 515.026245,192.961411 519.176453,192.973083   C519.128906,194.702362 519.081299,196.431656 519.023193,198.594391  z" data-index="40" style="visibility: visible;"></path>
<path fill="#6FB00F" opacity="1.000000" stroke="none" d=" M376.378693,196.807678   C380.022339,195.619156 383.928711,194.928619 387.683899,193.754410   C389.233307,193.269913 390.457977,191.746841 391.911804,190.349289   C392.397491,190.002472 392.801758,190.002502 393.509033,190.007614   C393.879272,193.043976 393.946503,196.075272 394.040710,199.508942   C388.349976,200.612717 382.632263,201.314072 376.534302,202.006561   C376.296204,200.368713 376.438354,198.739731 376.378693,196.807678  z" data-index="41" style="visibility: visible;"></path>
<path fill="#56A70D" opacity="1.000000" stroke="none" d=" M360.013092,210.684479   C354.717987,213.772934 349.626190,216.936920 343.230835,213.105377   C342.936981,211.235214 342.985535,209.534698 343.101013,207.414261   C346.842529,206.499649 350.507202,205.745941 354.195374,205.604736   C356.508789,205.516174 358.857483,206.347961 361.524536,206.890167   C361.293793,208.138153 360.728851,209.262787 360.013092,210.684479  z" data-index="42" style="visibility: visible;"></path>
<path fill="#56A70D" opacity="1.000000" stroke="none" d=" M101.108879,212.921509   C98.648369,213.968597 96.187851,215.015686 93.316193,216.079681   C91.948013,212.675613 90.990974,209.254623 90.320198,205.403564   C90.606453,204.973480 91.041267,204.919754 91.409271,204.917709   C98.690460,203.483612 97.273788,197.684387 98.216339,193.011230   C98.417084,193.005676 98.818680,192.998215 98.887062,193.453186   C99.673256,200.245956 100.391068,206.583725 101.108879,212.921509  z" data-index="43" style="visibility: visible;"></path>
<path fill="#3D9413" opacity="1.000000" stroke="none" d=" M341.075256,219.382172   C344.546570,219.691803 347.961212,220.211273 351.297821,221.043564   C353.486603,221.589584 355.562622,222.587708 357.865601,223.722656   C358.279510,226.994034 357.054474,228.118835 354.019104,227.953354   C349.627594,227.713943 345.213348,227.892059 339.689606,227.892059   C340.138000,225.066010 340.561737,222.395447 341.075256,219.382172  z" data-index="44" style="visibility: visible;"></path>
<path fill="#56A70D" opacity="1.000000" stroke="none" d=" M391.901459,212.633148   C387.202942,219.107758 380.360107,218.616989 373.350281,218.963165   C373.279480,216.889130 373.658203,214.830750 374.104858,212.379669   C379.821716,211.338974 385.470703,210.690979 391.560913,210.071381   C391.983429,210.823898 391.964752,211.548004 391.901459,212.633148  z" data-index="45" style="opacity: 1; visibility: visible;"></path>
<path fill="#FC9704" opacity="1.000000" stroke="none" d=" M480.055481,202.364441   C479.903412,195.194748 485.718445,197.323273 489.155121,196.343735   C492.330017,195.438797 495.514954,196.283142 496.597900,200.657059   C496.496918,202.393127 496.224518,203.826187 495.883484,205.636444   C491.955322,203.083893 487.841583,203.177475 483.409119,204.585770   C482.593109,204.845047 481.225250,203.367554 480.055481,202.364441  z" data-index="46" style="visibility: visible;"></path>
<path fill="#56A70D" opacity="1.000000" stroke="none" d=" M271.972687,208.012756   C272.703766,212.967850 270.858185,215.339798 265.560242,215.251404   C262.328857,215.197495 259.100464,218.374481 255.508011,215.114349   C254.901947,212.468887 254.617355,209.944412 254.896454,207.194473   C255.627762,206.971771 255.795364,206.974518 256.137939,207.327728   C261.532837,207.789703 266.752747,207.901230 271.972687,208.012756  z" data-index="47" style="visibility: visible;"></path>
<path fill="#78BD07" opacity="1.000000" stroke="none" d=" M401.968628,191.944870   C406.386719,192.631927 410.804779,193.318985 415.506592,194.332733   C414.796692,196.097977 413.803070,197.536545 412.809448,198.975128   C407.351746,199.425339 401.894043,199.875565 396.177551,200.122803   C395.918823,199.919846 396.029205,199.512878 396.430878,199.183746   C397.870026,196.555878 398.907501,194.257156 399.944977,191.958435   C399.944977,191.958435 399.997620,191.981781 400.310028,191.986115   C401.071167,191.975266 401.519897,191.960068 401.968628,191.944870  z" data-index="48" style="visibility: visible; opacity: 1;"></path>
<path fill="#6FB00F" opacity="1.000000" stroke="none" d=" M91.041267,204.919754   C91.041267,204.919754 90.606453,204.973480 90.388809,204.998871   C87.978249,198.170898 88.758049,191.406708 90.968628,184.316193   C94.061295,182.506317 96.966743,181.060074 99.955818,180.291656   C99.638054,183.695740 99.236671,186.421967 98.669174,189.350983   C98.325546,190.053925 98.148041,190.554108 97.622635,190.977798   C92.837769,189.252045 91.548477,192.155228 91.146957,195.522507   C90.778175,198.615158 91.051079,201.784302 91.041267,204.919754  z" data-index="49" style="visibility: visible;"></path>
<path fill="#56A70D" opacity="1.000000" stroke="none" d=" M208.930847,200.935364   C211.248489,199.847900 213.566147,198.760422 215.799438,197.712540   C217.397324,199.225998 218.833023,200.585831 220.613159,201.998123   C220.957596,202.050583 220.909805,202.527954 220.537247,202.881958   C219.373642,204.463989 218.861954,206.204315 217.736069,206.818329   C215.002655,208.308975 212.018311,209.391815 209.029449,210.285965   C208.707794,210.382187 207.691238,208.155609 206.991119,206.725891   C206.975815,206.258514 206.966415,206.071777 206.988739,205.658463   C207.020462,205.431900 207.158432,204.995667 207.467072,204.852722   C208.166534,203.450363 208.557373,202.190964 208.955719,200.948776   C208.963242,200.965988 208.930847,200.935379 208.930847,200.935364  z" data-index="50" style="visibility: visible;"></path>
<path fill="#4B9D14" opacity="1.000000" stroke="none" d=" M206.997009,207.006500   C207.691238,208.155609 208.707794,210.382187 209.029449,210.285965   C212.018311,209.391815 215.002655,208.308975 217.736069,206.818329   C218.861954,206.204315 219.373642,204.463989 220.472168,203.112839   C219.729095,206.198105 218.678574,209.406494 217.340912,212.832184   C213.699646,214.004471 210.390991,215.302383 206.970383,215.755951   C205.473618,215.954407 203.747986,214.426956 202.153152,213.018585   C203.507156,210.562256 204.834290,208.770554 206.370270,206.987061   C206.579132,206.995270 206.997025,207.006500 206.997009,207.006500  z" data-index="51" style="visibility: visible;"></path>
<path fill="#6FB00F" opacity="1.000000" stroke="none" d=" M255.962952,206.977264   C255.795364,206.974518 255.627762,206.971771 255.209045,206.963394   C255.778198,202.379349 256.598480,197.800919 257.411041,193.265488   C249.444077,192.435150 249.446045,192.435562 247.781845,200.302979   C247.411377,202.054352 247.021698,203.801682 246.313904,205.780960   C245.986938,206.011047 245.537689,205.940399 245.314407,205.902649   C245.375610,204.160278 245.660095,202.455673 245.957870,199.954742   C246.308853,196.776672 246.646545,194.394958 246.984238,192.013229   C252.043701,192.204727 257.250946,192.803406 260.529572,187.084839   C260.631134,187.549469 260.414276,188.141083 260.197418,188.732681   C260.380829,188.972351 260.564240,189.212006 260.747681,189.451660   C262.245880,188.296295 263.744049,187.140945 265.575073,186.038849   C265.596954,187.494659 265.286041,188.897217 264.617065,190.743439   C262.173889,194.791275 260.088776,198.395401 257.719543,202.206116   C256.944611,203.934219 256.453766,205.455750 255.962952,206.977264  z" data-index="52" style="visibility: visible;"></path>
<path fill="#86C307" opacity="1.000000" stroke="none" d=" M330.957886,186.657318   C326.258453,188.297943 321.495056,189.619858 316.513245,190.669403   C317.265869,187.661835 321.039124,185.851929 319.024414,182.130768   C319.459625,182.093094 319.894806,182.055405 320.652344,182.080841   C323.148651,182.719086 325.386658,183.127914 327.472656,183.931396   C328.734894,184.417587 329.761505,185.515518 330.957886,186.657318  z" data-index="53" style="visibility: visible;"></path>
<path fill="#F1B028" opacity="1.000000" stroke="none" d=" M100.110565,239.063217   C100.475945,237.591110 100.897926,236.204819 101.259995,234.452866   C103.546364,231.080032 105.892654,228.072845 108.659073,225.076859   C109.079208,225.088058 109.214951,225.220215 109.072708,225.525589   C107.299858,229.478714 105.669243,233.126480 104.179001,237.023987   C104.631264,237.488037 104.943130,237.702316 105.495461,237.944763   C105.735916,237.972946 106.219566,237.995651 106.219566,237.995651   C106.219566,237.995651 106.703354,237.975922 107.097656,237.982178   C107.754730,237.980469 108.017502,237.972504 108.671593,237.985840   C111.028236,238.316666 112.993561,238.626175 114.719872,239.265152   C110.733147,239.727585 106.985435,239.860535 103.237732,239.993469   C102.409546,239.713882 101.581367,239.434280 100.475418,239.253540   C100.197647,239.352386 100.167152,239.149033 100.110565,239.063217  z" data-index="54" style="visibility: visible;"></path>
<path fill="#F1B028" opacity="1.000000" stroke="none" d=" M446.867767,205.724945   C447.209778,211.212234 447.551788,216.699524 447.952148,222.581268   C442.584961,217.860184 443.569824,211.306808 444.647034,205.140656   C445.366638,201.021545 447.636383,197.173233 449.685150,193.174484   C450.157867,193.145233 450.447418,193.405579 450.333984,193.751221   C449.102936,197.972885 447.985352,201.848907 446.867767,205.724945  z" data-index="55" style="visibility: visible; opacity: 1;"></path>
<path fill="#6FB00F" opacity="1.000000" stroke="none" d=" M331.397827,198.925446   C330.774200,198.587982 330.449890,198.093994 330.057922,197.308411   C331.469879,195.461044 332.949524,193.905289 334.701599,192.175797   C338.062775,191.957825 341.151489,191.913559 344.625000,191.959412   C345.341980,193.459106 345.674133,194.868683 346.020752,196.647949   C345.488007,198.852585 344.940826,200.687576 344.163422,202.794037   C343.947266,201.469299 344.141998,199.848175 343.926147,198.283691   C343.696442,196.618866 343.333496,193.768661 342.579773,193.613235   C340.587677,193.202423 338.121490,193.498062 336.280029,194.401337   C334.473053,195.287674 333.202881,197.268463 331.397827,198.925446  z" data-index="56" style="visibility: visible;"></path>
<path fill="#4B9D14" opacity="1.000000" stroke="none" d=" M82.948059,230.752014   C82.772629,231.241028 82.520920,231.463028 82.125137,231.892273   C79.520386,232.099503 77.059708,232.099503 74.087395,232.099503   C73.984062,228.438171 73.373016,225.464706 78.667404,226.861542   C80.984894,227.472961 83.599091,226.959793 86.524841,226.916275   C85.604683,228.078506 84.238228,229.281769 82.948059,230.752014  z" data-index="57" style="visibility: visible;"></path>
<path fill="#87C011" opacity="1.000000" stroke="none" d=" M318.621704,182.070648   C321.039124,185.851929 317.265869,187.661835 316.175781,190.691620   C315.517822,192.472107 314.978821,193.958023 314.209656,195.676910   C314.637970,191.894135 315.200623,187.858154 316.040283,183.880661   C316.197235,183.137100 317.464264,182.627899 318.621704,182.070648  z" data-index="58" style="visibility: visible;"></path>
<path fill="#9DC71C" opacity="1.000000" stroke="none" d=" M402.144958,191.666107   C401.519897,191.960068 401.071167,191.975266 400.286224,191.967499   C402.045166,189.615234 404.140320,187.285950 406.584656,184.945709   C405.396332,187.085617 403.858826,189.236465 402.144958,191.666107  z" data-index="59" style="visibility: visible;"></path>
<path fill="#9DC71C" opacity="1.000000" stroke="none" d=" M399.605591,192.065460   C398.907501,194.257156 397.870026,196.555878 396.513489,198.989746   C397.218353,196.807449 398.242310,194.489975 399.605591,192.065460  z" data-index="60" style="visibility: visible;"></path>
<path fill="#F1B028" opacity="1.000000" stroke="none" d=" M457.608795,184.944077   C457.388000,186.104492 456.825867,187.280472 455.802185,188.777863   C454.722168,189.231293 454.103668,189.363297 453.345795,189.356857   C453.206390,189.218399 452.925842,188.943283 452.925842,188.943283   C454.373047,187.615402 455.820251,186.287521 457.608795,184.944077  z" data-index="61" style="visibility: visible;"></path>
<path fill="#F1B028" opacity="1.000000" stroke="none" d=" M450.012360,193.015884   C450.682343,191.655609 451.497833,190.424683 452.619568,189.068512   C452.925842,188.943283 453.206390,189.218399 453.219727,189.641922   C452.304535,191.178818 451.375977,192.292206 450.447418,193.405579   C450.447418,193.405579 450.157867,193.145233 450.012360,193.015884  z" data-index="62" style="visibility: visible;"></path>
<path fill="#6FB00F" opacity="1.000000" stroke="none" d=" M375.043274,193.403854   C375.625671,193.068954 376.311798,192.996750 376.997925,192.924530   C376.878754,193.556091 376.759613,194.187637 376.394501,194.914963   C375.814697,194.562668 375.480865,194.114609 375.043274,193.403854  z" data-index="63" style="visibility: visible;"></path>
<path fill="#6FB00F" opacity="1.000000" stroke="none" d=" M268.583984,184.933624   C268.416290,185.197647 267.956085,185.491760 267.219055,185.824707   C267.391998,185.563614 267.841736,185.263657 268.583984,184.933624  z" data-index="64" style="visibility: visible;"></path>
<path fill="#4B9D14" opacity="1.000000" stroke="none" d=" M258.740723,222.321762   C259.224701,222.444077 259.541840,222.853729 259.929901,223.517212   C259.525177,223.383743 259.049500,222.996429 258.740723,222.321762  z" data-index="65" style="visibility: visible;"></path>
<path fill="#F1B028" opacity="1.000000" stroke="none" d=" M462.664734,182.936188   C462.490021,183.214355 461.998199,183.548935 461.206177,183.941986   C461.386536,183.664505 461.867065,183.328568 462.664734,182.936188  z" data-index="66" style="visibility: visible;"></path>
<path fill="#9DC71C" opacity="1.000000" stroke="none" d=" M408.659119,183.962402   C408.481018,184.215744 408.004883,184.528091 407.242310,184.894043   C407.424255,184.638901 407.892639,184.330154 408.659119,183.962402  z" data-index="67" style="visibility: visible;"></path>
<path fill="#F1B028" opacity="1.000000" stroke="none" d=" M459.795807,184.090240   C459.593109,184.425491 459.066925,184.674301 458.244507,184.928772   C458.456268,184.624222 458.964294,184.313995 459.795807,184.090240  z" data-index="68" style="visibility: visible;"></path>
<path fill="#F1B028" opacity="1.000000" stroke="none" d=" M448.670654,224.116669   C448.799377,224.165451 448.876740,224.560333 448.933960,224.752899   C448.624756,224.935013 448.367950,224.761856 448.259155,224.183624   C448.297455,223.941284 448.541901,224.067902 448.670654,224.116669  z" data-index="69" style="visibility: visible;"></path>
<path fill="#56A70D" opacity="1.000000" stroke="none" d=" M221.257828,201.904877   C221.152054,201.730774 221.282944,201.542038 221.600189,201.287292   C221.829926,201.494537 221.732574,201.717529 221.257828,201.904877  z" data-index="70" style="visibility: visible;"></path>
<path fill="#87C011" opacity="1.000000" stroke="none" d=" M208.936234,148.606415   C208.729645,148.684662 208.490311,148.479614 208.161224,148.031158   C208.312820,148.008209 208.590164,148.186661 208.936234,148.606415  z" data-index="71" style="visibility: visible;"></path>

<path fill="#F26711" opacity="1.000000" stroke="none" d=" M143.052490,233.982315   C143.441910,235.715042 143.831345,237.447769 144.046936,239.762451   C143.892319,240.527008 143.911545,240.709625 143.930786,240.892242   C143.930786,240.892242 143.941452,240.932251 143.495880,240.875504   C141.075974,240.911346 139.101669,241.003952 137.127350,241.096558   C136.334137,241.012604 135.540924,240.928650 134.027328,240.623962   C128.728058,240.192719 124.149170,239.982208 119.626457,239.494843   C119.620659,238.852905 119.558678,238.487839 119.919464,238.071625   C121.192032,237.966705 122.041847,237.912933 123.368965,237.898132   C128.760376,237.944580 133.674759,237.924240 138.588501,237.970490   C141.335373,237.996323 142.963013,236.877655 143.052490,233.982315  z" data-index="73" style="visibility: visible;"></path>
<path fill="#3D9413" opacity="1.000000" stroke="none" d=" M119.570282,239.771698   C124.149170,239.982208 128.728058,240.192719 133.627075,240.651428   C130.708969,241.258026 127.476273,241.845016 124.231277,241.923492   C118.801918,242.054779 113.361534,241.947540 107.932953,241.746811   C106.504471,241.693970 105.102303,240.929352 103.462891,240.242523   C106.985435,239.860535 110.733147,239.727585 115.116882,239.273560   C116.543678,238.970779 117.334435,238.989059 118.193039,239.241730   C118.697350,239.574661 119.133820,239.673187 119.570282,239.771698  z" data-index="74" style="visibility: visible; opacity: 1;"></path>
<path fill="#3D9413" opacity="1.000000" stroke="none" d=" M137.328125,241.378403   C139.101669,241.003952 141.075974,240.911346 143.475403,240.872360   C142.131531,244.250061 139.856110,243.179810 137.328125,241.378403  z" data-index="75" style="visibility: visible;"></path>
<path fill="#4B9D14" opacity="1.000000" stroke="none" d=" M206.988617,227.592285   C206.340775,227.183685 205.667679,226.446976 204.970856,225.392426   C205.465561,225.245712 205.984009,225.416840 206.709122,225.767456   C206.931656,226.386047 206.947525,226.825119 206.988617,227.592285  z" data-index="76" style="visibility: visible;"></path>
<path fill="#3D9413" opacity="1.000000" stroke="none" d=" M146.323013,241.370605   C147.099808,241.175171 148.128036,241.139313 149.539154,241.157349   C148.806183,241.317551 147.690323,241.423859 146.323013,241.370605  z" data-index="77" style="visibility: visible;"></path>
<path fill="#4B9D14" opacity="1.000000" stroke="none" d=" M208.845581,229.733139   C208.683090,229.835754 208.435654,229.684311 208.169800,229.218048   C208.288086,229.203964 208.491165,229.395905 208.845581,229.733139  z" data-index="78" style="visibility: visible;"></path>
<path fill="#3D9413" opacity="1.000000" stroke="none" d=" M144.224045,240.923294   C143.911545,240.709625 143.892319,240.527008 143.940338,240.076233   C144.291901,240.032608 144.576233,240.257172 144.983765,240.725296   C144.910385,240.964035 144.713837,240.959183 144.224045,240.923294  z" data-index="79" style="visibility: visible;"></path>

<path fill="#FC9704" opacity="1.000000" stroke="none" d=" M470.690918,192.036377   C468.380127,196.443237 465.670929,200.839752 462.895844,205.623413   C457.706512,208.220932 452.538696,208.620316 447.087097,206.057922   C447.985352,201.848907 449.102936,197.972885 450.333984,193.751221   C451.375977,192.292206 452.304535,191.178818 453.359131,189.780380   C454.103668,189.363297 454.722168,189.231293 455.661102,189.072433   C457.757904,191.541809 459.197968,193.628250 462.990448,191.138702   C464.555756,190.111145 467.807648,191.652863 470.690918,192.036377  z" data-index="81" style="opacity: 1; visibility: visible;"></path>

<path fill="#000000" opacity="1.000000" stroke="none" d=" M287.570801,192.079773   C289.014557,194.813843 290.040649,197.485580 291.124634,200.560211   C290.895203,202.726547 290.607849,204.490005 290.160400,206.978485   C289.311554,209.442856 288.622803,211.182236 287.934082,212.921600   C286.300140,214.241837 284.854218,215.997025 282.996674,216.799774   C277.671936,219.100952 274.209625,216.652039 274.014221,210.776077   C273.981506,209.793106 273.985901,208.808914 274.088013,207.060852   C274.507172,203.516281 274.811432,200.736160 275.077179,197.735367   C275.038635,197.514709 275.029999,197.066803 275.029999,197.066803   C279.185303,195.658005 281.739471,190.404984 287.570801,192.079773  z" data-index="83" style="opacity: 1; visibility: hidden; fill: rgb(121, 40, 202);"></path>
<path fill="#69B40C" opacity="1.000000" stroke="none" d=" M275.167755,196.734253   C275.029999,197.066803 275.038635,197.514709 274.629395,197.746872   C268.814636,199.319199 263.409149,200.659378 258.003662,201.999542   C260.088776,198.395401 262.173889,194.791275 264.588135,191.103668   C267.150299,191.290909 269.454102,192.045059 271.601654,191.730988   C275.979797,191.090698 276.463593,192.950851 275.167755,196.734253  z" data-index="84" style="opacity: 1; visibility: visible;"></path>
<path fill="#86C307" opacity="1.000000" stroke="none" d=" M388.892273,187.649780   C383.364624,190.857529 371.515106,190.106674 368.018677,186.327728   C374.801575,181.550934 384.384827,182.157623 388.892273,187.649780  z" data-index="85" style="visibility: visible;"></path>
<path fill="#69B40C" opacity="1.000000" stroke="none" d=" M246.765884,191.716339   C246.646545,194.394958 246.308853,196.776672 245.955170,199.575256   C242.812759,198.065735 239.724426,197.433182 235.997696,198.774902   C233.127533,199.808212 231.817261,197.742599 231.981812,194.466461   C234.224609,188.946884 239.628525,187.965805 246.765884,191.716339  z" data-index="86" style="visibility: visible;"></path>
<path fill="#F9B210" opacity="1.000000" stroke="none" d=" M519.376221,192.684265   C515.026245,192.961411 510.876068,192.949722 506.320831,192.905212   C506.140564,190.104965 505.122314,187.196671 509.267029,185.723145   C512.035400,184.738968 511.886536,181.602692 510.490631,178.830063   C509.305603,176.476379 508.558319,173.902313 507.617340,171.425751   C507.986664,171.181625 508.355988,170.937500 508.725311,170.693375   C509.819275,171.167068 510.913239,171.640778 512.573608,172.359711   C513.766907,170.292465 515.013062,168.133621 516.649353,165.298981   C517.462036,168.259033 518.185669,170.894730 519.116760,174.286194   C520.944397,172.610367 522.254944,171.408646 523.565491,170.206940   C524.036499,170.517349 524.507568,170.827759 524.978638,171.138168   C523.593323,173.440033 522.543457,176.060547 520.736938,177.962387   C518.523010,180.293167 517.392822,181.856384 519.610840,185.124451   C520.733337,186.778366 519.657715,189.924179 519.376221,192.684265  z" data-index="87" style="visibility: visible;"></path>
<path fill="#5FAB0C" opacity="1.000000" stroke="none" d=" M257.719543,202.206116   C263.409149,200.659378 268.814636,199.319199 274.667908,197.967529   C274.811432,200.736160 274.507172,203.516281 274.018311,206.634949   C273.342316,207.191818 272.850922,207.410156 272.166138,207.820648   C266.752747,207.901230 261.532837,207.789703 256.137939,207.327728   C256.453766,205.455750 256.944611,203.934219 257.719543,202.206116  z" data-index="88" style="visibility: visible;"></path>
<path fill="#56A70D" opacity="1.000000" stroke="none" d=" M288.067200,213.251831   C288.622803,211.182236 289.311554,209.442856 290.076569,207.354889   C294.770996,207.130096 299.507721,210.065292 304.042389,206.368607   C304.308319,206.151810 305.974915,207.653168 306.993713,208.686462   C302.714355,214.704803 293.010040,217.061035 288.067200,213.251831  z" data-index="89" style="opacity: 1; visibility: visible;"></path>
<path fill="#F9B210" opacity="1.000000" stroke="none" d=" M109.981316,222.970078   C113.461342,220.782700 118.209152,220.869507 120.225632,215.963699   C121.557205,212.724152 126.408997,213.687302 128.484787,216.852875   C129.861176,218.951828 131.994293,220.554581 133.716644,222.974792   C132.946014,226.724762 130.908386,228.330017 127.756752,228.558395   C121.295990,229.026550 114.604233,230.722824 109.214951,225.220215   C109.214951,225.220215 109.079208,225.088058 109.003448,225.030975   C109.016518,224.551849 109.105354,224.129822 109.467163,223.389923   C109.740135,223.072083 109.981316,222.970078 109.981316,222.970078  z" data-index="90" style="visibility: visible;"></path>
<path fill="#F1B028" opacity="1.000000" stroke="none" d=" M109.944290,222.693878   C109.981316,222.970078 109.740135,223.072083 109.612244,223.099915   C109.372597,222.708176 109.260849,222.288589 109.097946,221.545578   C109.333618,221.620651 109.620438,222.019150 109.944290,222.693878  z" data-index="91" style="visibility: visible;"></path>
<path fill="#4B9D14" opacity="1.000000" stroke="none" d=" M195.873276,216.700989   C193.823898,215.402283 191.573975,213.898590 189.645767,212.057907   C185.086121,207.705139 180.679413,203.192169 176.302246,198.261749   C178.924774,198.193848 181.455902,198.608215 183.987045,199.022568   C186.907791,201.774628 189.828552,204.526672 192.905838,207.568787   C193.981232,210.686844 194.900101,213.514832 195.873276,216.700989  z" data-index="92" style="opacity: 1; visibility: visible;"></path>
<path fill="#4B9D14" opacity="1.000000" stroke="none" d=" M202.954956,223.597763   C201.742661,222.848755 200.501389,221.739578 199.118164,220.349457   C200.292816,221.124878 201.609406,222.181244 202.954956,223.597763  z" data-index="93" style="visibility: visible;"></path>
<path fill="#4B9D14" opacity="1.000000" stroke="none" d=" M198.867371,219.748154   C198.333221,219.588013 197.736374,219.133011 197.068085,218.373016   C197.599319,218.529770 198.201981,218.991547 198.867371,219.748154  z" data-index="94" style="visibility: visible;"></path>
<path fill="#4B9D14" opacity="1.000000" stroke="none" d=" M204.769180,224.845856   C204.410919,224.879257 203.857788,224.710831 203.171906,224.280457   C203.550873,224.227020 204.062592,224.435532 204.769180,224.845856  z" data-index="95" style="visibility: visible;"></path>
<path fill="#4B9D14" opacity="1.000000" stroke="none" d=" M196.807098,217.828674   C196.658051,217.856796 196.372299,217.696152 196.023529,217.287354   C196.227463,217.203583 196.464096,217.403839 196.807098,217.828674  z" data-index="96" style="visibility: visible;"></path>
<path fill="#69B40C" opacity="1.000000" stroke="none" d=" M91.409271,204.917709   C91.051079,201.784302 90.778175,198.615158 91.146957,195.522507   C91.548477,192.155228 92.837769,189.252045 97.651321,191.189850   C98.027916,191.478363 98.089485,191.903152 98.061996,192.180969   C98.028214,192.644791 98.021904,192.830795 98.015587,193.016800   C97.273788,197.684387 98.690460,203.483612 91.409271,204.917709  z" data-index="97" style="visibility: visible;"></path>
<path fill="#6FB00F" opacity="1.000000" stroke="none" d=" M98.216339,193.011230   C98.021904,192.830795 98.028214,192.644791 98.244293,192.194626   C98.454063,191.930466 98.821465,191.929672 98.821465,191.929672   C98.853027,192.107620 98.884598,192.285568 98.867416,192.730865   C98.818680,192.998215 98.417084,193.005676 98.216339,193.011230  z" data-index="98" style="visibility: visible;"></path>
<path fill="#56A70D" opacity="1.000000" stroke="none" d=" M98.891449,191.584900   C98.821465,191.929672 98.454063,191.930466 98.271774,191.916809   C98.089485,191.903152 98.027916,191.478363 97.999222,191.266327   C98.148041,190.554108 98.325546,190.053925 98.669174,189.350983   C98.877335,189.845505 98.919380,190.542816 98.891449,191.584900  z" data-index="99" style="visibility: visible;"></path>
<path fill="#5FAB0C" opacity="1.000000" stroke="none" d=" M207.467072,204.852722   C207.564224,203.757553 207.970016,202.519424 208.662018,201.106445   C208.557373,202.190964 208.166534,203.450363 207.467072,204.852722  z" data-index="100" style="visibility: visible;"></path>
<path fill="#5FAB0C" opacity="1.000000" stroke="none" d=" M206.370270,206.987061   C206.272781,206.684143 206.384155,206.389404 206.726273,205.989853   C206.966415,206.071777 206.975815,206.258514 206.991119,206.725891   C206.997025,207.006500 206.579132,206.995270 206.370270,206.987061  z" data-index="101" style="visibility: visible;"></path>
<path fill="#FC9704" opacity="1.000000" stroke="none" d=" M109.072708,225.525589   C114.604233,230.722824 121.295990,229.026550 127.756752,228.558395   C130.908386,228.330017 132.946014,226.724762 133.883240,223.299591   C135.402740,223.779953 136.683609,224.530869 137.849686,225.941742   C136.269470,232.439117 132.333603,235.195984 126.531166,235.915375   C125.257248,236.073318 124.101707,237.186096 122.891663,237.859161   C122.041847,237.912933 121.192032,237.966705 119.728882,238.128693   C118.785423,238.493713 118.455299,238.750534 118.125183,239.007339   C117.334435,238.989059 116.543678,238.970779 115.355911,238.944092   C112.993561,238.626175 111.028236,238.316666 108.564697,237.806046   C107.612114,237.728592 107.157730,237.852264 106.703354,237.975922   C106.703354,237.975922 106.219566,237.995651 106.219566,237.995651   C106.219566,237.995651 105.735916,237.972946 105.288994,237.756241   C104.574257,237.284439 104.306442,237.029343 104.038620,236.774231   C105.669243,233.126480 107.299858,229.478714 109.072708,225.525589  z" data-index="102" style="visibility: visible; opacity: 1;"></path>
<path fill="#F5760C" opacity="1.000000" stroke="none" d=" M107.097656,237.982178   C107.157730,237.852264 107.612114,237.728592 108.173386,237.784729   C108.017502,237.972504 107.754730,237.980469 107.097656,237.982178  z" data-index="103" style="visibility: visible;"></path>
<path fill="#F5760C" opacity="1.000000" stroke="none" d=" M104.179001,237.023987   C104.306442,237.029343 104.574257,237.284439 105.048538,237.728058   C104.943130,237.702316 104.631264,237.488037 104.179001,237.023987  z" data-index="104" style="visibility: visible;"></path>
<path fill="#69B40C" opacity="1.000000" stroke="none" d=" M183.957870,198.684387   C181.455902,198.608215 178.924774,198.193848 176.153809,197.954895   C171.954330,195.209305 167.641769,193.739853 162.069183,194.716354   C160.667664,195.017639 159.883362,195.517166 159.099075,196.016693   C159.099075,196.016693 159.090744,196.104141 158.699188,196.099274   C149.879211,197.057068 141.450806,198.019745 133.017929,198.535309   C133.362213,194.054977 133.710938,190.021744 134.298981,185.986938   C134.538269,185.985352 135.016861,185.985138 135.355408,186.158112   C139.234604,186.777084 142.809601,187.778091 146.309204,187.561447   C155.536819,186.990189 164.770096,186.162109 173.921021,184.869308   C177.665680,184.340256 181.204086,182.351257 184.836334,181.026428   C185.266556,183.476685 185.696762,185.926910 185.821014,189.008728   C185.022568,192.091644 184.530075,194.542999 184.037567,196.994339   C184.001282,197.444962 183.964996,197.895599 183.957870,198.684387  z" data-index="105" style="opacity: 1; visibility: visible;"></path>
<path fill="#6FB00F" opacity="1.000000" stroke="none" d=" M135.016876,185.985138   C135.016861,185.985138 134.538269,185.985352 134.088379,185.710800   C131.174545,183.777252 128.702972,182.288452 125.909760,184.907898   C125.600281,184.475342 125.392448,184.256241 125.157295,184.063049   C128.652557,171.324570 136.666962,162.895554 149.543503,159.854599   C160.985046,157.152527 171.656403,158.894196 180.238037,167.805130   C181.087357,168.687042 181.441193,170.046158 181.700485,171.490509   C180.773743,171.531387 180.133926,171.327820 179.574799,170.990524   C166.317352,162.992630 149.521027,165.961456 139.722900,178.186829   C137.968277,180.911545 136.492569,183.448349 135.016876,185.985138  z" data-index="106" style="visibility: visible; opacity: 1;"></path>
<path fill="#86C307" opacity="1.000000" stroke="none" d=" M140.001831,177.998901   C149.521027,165.961456 166.317352,162.992630 179.574799,170.990524   C180.133926,171.327820 180.773743,171.531387 181.727173,171.853638   C182.078354,171.910019 182.044937,171.945999 182.150772,172.132080   C182.428635,172.571487 182.628494,172.800537 182.856171,173.005310   C183.180023,173.476334 183.503860,173.947372 183.488159,174.782227   C174.132370,176.724167 165.140015,178.462784 156.089371,179.809448   C151.863800,180.438202 147.521759,180.486496 143.240601,180.399536   C142.145203,180.377289 141.080582,178.840088 140.001831,177.998901  z" data-index="107" style="visibility: visible; opacity: 1;"></path>
<path fill="#78BD07" opacity="1.000000" stroke="none" d=" M139.722900,178.186829   C141.080582,178.840088 142.145203,180.377289 143.240601,180.399536   C147.521759,180.486496 151.863800,180.438202 156.089371,179.809448   C165.140015,178.462784 174.132370,176.724167 183.492050,175.071320   C184.210419,176.745972 184.585327,178.495377 184.898285,180.635620   C181.204086,182.351257 177.665680,184.340256 173.921021,184.869308   C164.770096,186.162109 155.536819,186.990189 146.309204,187.561447   C142.809601,187.778091 139.234604,186.777084 135.355423,186.158112   C136.492569,183.448349 137.968277,180.911545 139.722900,178.186829  z" data-index="108" style="opacity: 1; visibility: visible;"></path>
<path fill="#4B9D14" opacity="1.000000" stroke="none" d=" M125.075974,184.471436   C125.392448,184.256241 125.600281,184.475342 125.901459,185.297073   C126.188042,187.844086 126.621674,189.835220 126.470345,191.780853   C125.990150,197.954666 128.599075,202.242233 134.142990,205.313904   C137.824982,211.449631 138.764816,211.508560 144.842606,208.576797   C148.286682,206.915497 152.161163,206.146545 155.841782,204.975677   C156.061432,205.276886 156.281067,205.578110 156.713989,206.373657   C154.925018,211.401993 154.861145,217.478943 147.969818,218.121353   C131.278473,217.616348 120.690590,200.429565 125.075974,184.471436  z" data-index="109" style="visibility: visible; opacity: 1;"></path>
<path fill="#5FAB0C" opacity="1.000000" stroke="none" d=" M155.758484,204.626251   C152.161163,206.146545 148.286682,206.915497 144.842606,208.576797   C138.764816,211.508560 137.824982,211.449631 134.122253,204.931305   C133.642609,202.490265 133.332504,200.736343 133.022385,198.982422   C141.450806,198.019745 149.879211,197.057068 158.655289,196.097778   C157.804581,198.790115 153.138107,200.067413 155.758484,204.626251  z" data-index="110" style="visibility: visible; opacity: 1;"></path>
<path fill="#F5760C" opacity="1.000000" stroke="none" d=" M123.368958,237.898132   C124.101707,237.186096 125.257248,236.073318 126.531166,235.915375   C132.333603,235.195984 136.269470,232.439117 137.906952,226.291412   C142.232086,226.787888 142.753616,229.929169 142.937866,233.671646   C142.963013,236.877655 141.335373,237.996323 138.588501,237.970490   C133.674759,237.924240 128.760376,237.944580 123.368958,237.898132  z" data-index="111" style="visibility: visible;"></path>
<path fill="#3D9413" opacity="1.000000" stroke="none" d=" M148.245148,218.425430   C154.861145,217.478943 154.925018,211.401993 156.966461,206.500244   C160.338440,209.087921 163.671219,212.043350 167.003983,214.998795   C166.868469,215.709763 166.732956,216.420746 166.597443,217.131729   C160.571793,217.664322 154.546127,218.196915 148.245148,218.425430  z" data-index="112" style="visibility: visible;"></path>
<path fill="#4B9D14" opacity="1.000000" stroke="none" d=" M184.350525,196.785828   C184.530075,194.542999 185.022568,192.091644 185.695953,189.363007   C185.472382,191.582901 185.067932,194.080109 184.350525,196.785828  z" data-index="113" style="visibility: visible;"></path>
<path fill="#5FAB0C" opacity="1.000000" stroke="none" d=" M159.415863,195.997940   C159.883362,195.517166 160.667664,195.017639 161.686707,194.674927   C161.191864,195.214233 160.462265,195.596710 159.415863,195.997940  z" data-index="114" style="visibility: visible;"></path>
<path fill="#6FB00F" opacity="1.000000" stroke="none" d=" M182.873932,172.744537   C182.628494,172.800537 182.428635,172.571487 182.159607,172.111389   C182.338974,172.097656 182.615326,172.290710 182.873932,172.744537  z" data-index="115" style="visibility: visible;"></path>
<path fill="#F1B028" opacity="1.000000" stroke="none" d=" M118.193039,239.241730   C118.455299,238.750534 118.785423,238.493713 119.306122,238.179840   C119.558678,238.487839 119.620659,238.852905 119.626457,239.494843   C119.133820,239.673187 118.697350,239.574661 118.193039,239.241730  z" data-index="116" style="visibility: visible;"></path>
<path fill="#56A70D" opacity="1.000000" stroke="none" d=" M133.017929,198.535309   C133.332504,200.736343 133.642609,202.490265 133.973450,204.626770   C128.599075,202.242233 125.990150,197.954666 126.470345,191.780853   C126.621674,189.835220 126.188042,187.844086 126.030434,185.484589   C128.702972,182.288452 131.174545,183.777252 133.849091,185.712372   C133.710938,190.021744 133.362213,194.054977 133.017929,198.535309  z" data-index="117" style="visibility: visible; opacity: 1;"></path>
</svg>